<?xml version="1.0" standalone="no"?>
<!DOCTYPE svg PUBLIC "-//W3C//DTD SVG 20010904//EN"
 "http://www.w3.org/TR/2001/REC-SVG-20010904/DTD/svg10.dtd">
<svg version="1.0" xmlns="http://www.w3.org/2000/svg"
 width="167.000000pt" height="167.000000pt" viewBox="0 0 167.000000 167.000000"
 preserveAspectRatio="xMidYMid meet">
<style>
@media (prefers-color-scheme: dark) {
    g {
        fill: white;
    }
}
</style>

<g transform="translate(0.000000,167.000000) scale(0.100000,-0.100000)"
fill="#000000" stroke="none">
<path d="M160 795 l0 -535 215 0 215 0 0 165 0 165 243 0 c133 0 271 5 307 11
176 28 275 123 300 287 22 138 -17 282 -94 350 -100 88 -130 92 -703 92 l-483
0 0 -535z m803 263 c38 -26 54 -86 36 -135 -23 -59 -49 -66 -241 -71 l-168 -4
0 117 0 117 173 -4 c144 -2 177 -6 200 -20z"/>
</g>
</svg>
